<?xml version="1.0" encoding="utf-8" ?>
<svg baseProfile="full" height="120mm" version="1.1" viewBox="0,0,120,120" width="120mm" xmlns="http://www.w3.org/2000/svg" xmlns:ev="http://www.w3.org/2001/xml-events" xmlns:xlink="http://www.w3.org/1999/xlink"><defs /><rect fill="#222222" height="120" width="120" x="0" y="0" /><text alignment-baseline="middle" fill="#FFFFFF" style="dominant-baseline: central; font-size:5.0px;                        font-family:Arial;" text-anchor="middle" x="60.0" y="60.0">2021<animate attributeName="opacity" dur="3s" keyTimes="0;0.5;1" repeatCount="indefinite" values="0;1;0" /></text><text alignment-baseline="middle" fill="#FFFFFF" style="dominant-baseline: central; font-size:5.0px;                        font-family:Arial;" text-anchor="middle" x="109" y="8">458 km<animate attributeName="opacity" dur="3s" keyTimes="0;0.5;1" repeatCount="indefinite" values="0;1;0" /></text><text alignment-baseline="middle" fill="#FFFFFF" style="dominant-baseline: central; font-size:5.0px;                        font-family:Arial;" text-anchor="middle" x="14" y="8">蝴蝶 Strava<animate attributeName="opacity" dur="3s" keyTimes="0;0.5;1" repeatCount="indefinite" values="0;1;0" /></text><line stroke="#FFFFFF" stroke-width="0.3" x1="60.0" x2="60.0" y1="15.0" y2="10.0"><animate attributeName="opacity" dur="3s" keyTimes="0;0.5;1" repeatCount="indefinite" values="0;1;0" /></line><path d="M 60.0 14.0 a46.0,46.0 0 0,1 22.71367530735895,                     5.998888090055893" fill="none" id="id1" stroke="none"><animate attributeName="opacity" dur="3s" keyTimes="0;0.5;1" repeatCount="indefinite" values="0;1;0" /></path><text fill="#FFFFFF" style="font-size:3.75px; font-family:Arial;" text-anchor="middle"><textPath startOffset="11.877802361517572" xlink:href="#id1">January</textPath><animate attributeName="opacity" dur="3s" keyTimes="0;0.5;1" repeatCount="indefinite" values="0;1;0" /></text><line stroke="#FFFFFF" stroke-width="0.3" x1="82.8901924733447" x2="85.43354719260522" y1="21.256754284995253" y2="16.951949205550285"><animate attributeName="opacity" dur="3s" keyTimes="0;0.5;1" repeatCount="indefinite" values="0;1;0" /></line><path d="M 83.39886341719681 20.395793269106264 a46.0,46.0 0 0,1 15.269583241989189,                     14.68932698071859" fill="none" id="id2" stroke="none"><animate attributeName="opacity" dur="3s" keyTimes="0;0.5;1" repeatCount="indefinite" values="0;1;0" /></path><text fill="#FFFFFF" style="font-size:3.75px; font-family:Arial;" text-anchor="middle"><textPath startOffset="10.690022125365816" xlink:href="#id2">February</textPath><animate attributeName="opacity" dur="3s" keyTimes="0;0.5;1" repeatCount="indefinite" values="0;1;0" /></text><line stroke="#FFFFFF" stroke-width="0.3" x1="98.24176911873874" x2="102.49085457637639" y1="36.281503111093244" y2="33.64611456788138"><animate attributeName="opacity" dur="3s" keyTimes="0;0.5;1" repeatCount="indefinite" values="0;1;0" /></line><path d="M 99.09158621026629 35.75442540245088 a46.0,46.0 0 0,1 6.87391430675916,                     22.464349676509087" fill="none" id="id3" stroke="none"><animate attributeName="opacity" dur="3s" keyTimes="0;0.5;1" repeatCount="indefinite" values="0;1;0" /></path><text fill="#FFFFFF" style="font-size:3.75px; font-family:Arial;" text-anchor="middle"><textPath startOffset="11.877802361517572" xlink:href="#id3">March</textPath><animate attributeName="opacity" dur="3s" keyTimes="0;0.5;1" repeatCount="indefinite" values="0;1;0" /></text><line stroke="#FFFFFF" stroke-width="0.3" x1="104.98958258909508" x2="109.98842509899454" y1="59.03177561537" y2="58.924195128188884"><animate attributeName="opacity" dur="3s" keyTimes="0;0.5;1" repeatCount="indefinite" values="0;1;0" /></line><path d="M 105.98935109107498 59.010259517933775 a46.0,46.0 0 0,1 -5.138714250118292,                     22.137446496863006" fill="none" id="id4" stroke="none"><animate attributeName="opacity" dur="3s" keyTimes="0;0.5;1" repeatCount="indefinite" values="0;1;0" /></path><text fill="#FFFFFF" style="font-size:3.75px; font-family:Arial;" text-anchor="middle"><textPath startOffset="11.48187561613365" xlink:href="#id4">April</textPath><animate attributeName="opacity" dur="3s" keyTimes="0;0.5;1" repeatCount="indefinite" values="0;1;0" /></text><line stroke="#FFFFFF" stroke-width="0.3" x1="99.6005491788091" x2="104.00061019867678" y1="81.37279824301724" y2="83.7475536033525"><animate attributeName="opacity" dur="3s" keyTimes="0;0.5;1" repeatCount="indefinite" values="0;1;0" /></line><path d="M 100.48056138278264 81.8477493150843 a46.0,46.0 0 0,1 -16.06697916733371,                     17.139133137985933" fill="none" id="id5" stroke="none"><animate attributeName="opacity" dur="3s" keyTimes="0;0.5;1" repeatCount="indefinite" values="0;1;0" /></path><text fill="#FFFFFF" style="font-size:3.75px; font-family:Arial;" text-anchor="middle"><textPath startOffset="11.877802361517583" xlink:href="#id5">May</textPath><animate attributeName="opacity" dur="3s" keyTimes="0;0.5;1" repeatCount="indefinite" values="0;1;0" /></text><line stroke="#FFFFFF" stroke-width="0.3" x1="83.22280759571338" x2="85.80311955079264" y1="98.54479481554516" y2="102.82754979505017"><animate attributeName="opacity" dur="3s" keyTimes="0;0.5;1" repeatCount="indefinite" values="0;1;0" /></line><path d="M 83.73886998672923 99.40134581144616 a46.0,46.0 0 0,1 -21.759847268520826,                     6.556063483256414" fill="none" id="id6" stroke="none"><animate attributeName="opacity" dur="3s" keyTimes="0;0.5;1" repeatCount="indefinite" values="0;1;0" /></path><text fill="#FFFFFF" style="font-size:3.75px; font-family:Arial;" text-anchor="middle"><textPath startOffset="11.481875616133655" xlink:href="#id6">June</textPath><animate attributeName="opacity" dur="3s" keyTimes="0;0.5;1" repeatCount="indefinite" values="0;1;0" /></text><path d="M 64.84570662785545 69.87517732887657 l 3.230471085236963 6.583451552584379 a18.333333333333332,18.333333333333332 0 0,0 -0.28450481365059044,0.13657959988133644 l -3.116669159776727 -6.638083392536914" fill="#3cffa3" stroke="none"><animate attributeName="opacity" dur="3s" keyTimes="0;0.5;1" repeatCount="indefinite" values="0;1;0" /></path><path d="M 64.32949304322113 70.11214566690471 l 1.1614310686994274 2.7126871510156065 a13.95086321381142,13.95086321381142 0 0,0 -0.2215719545930039,0.09261709498989323 l -1.114564540083944 -2.732277363777867" fill="#46fff8" stroke="none"><animate attributeName="opacity" dur="3s" keyTimes="0;0.5;1" repeatCount="indefinite" values="0;1;0" /></path><path d="M 63.80173543937807 70.3221513091495 l 2.049806890288839 5.565462724455112 a16.93094289508632,16.93094289508632 0 0,0 -0.27434612796632585,0.09837076072102373 l -1.9537028972307473 -5.599922197149448" fill="#3fffbf" stroke="none"><animate attributeName="opacity" dur="3s" keyTimes="0;0.5;1" repeatCount="indefinite" values="0;1;0" /></path><line stroke="#FFFFFF" stroke-width="0.3" x1="61.161829810220986" x2="61.290922011356656" y1="104.98499918297301" y2="109.98333242552556"><animate attributeName="opacity" dur="3s" keyTimes="0;0.5;1" repeatCount="indefinite" values="0;1;0" /></line><path d="M 61.18764825044812 105.98466583148351 a46.0,46.0 0 0,1 -22.860985603445844,                     -5.410456683514243" fill="none" id="id7" stroke="none"><animate attributeName="opacity" dur="3s" keyTimes="0;0.5;1" repeatCount="indefinite" values="0;1;0" /></path><text fill="#FFFFFF" style="font-size:3.75px; font-family:Arial;" text-anchor="middle"><textPath startOffset="11.877802361517572" xlink:href="#id7">July</textPath><animate attributeName="opacity" dur="3s" keyTimes="0;0.5;1" repeatCount="indefinite" values="0;1;0" /></text><path d="M 59.90532303422443 70.99959255027892 l -0.04061176619589442 4.7182847194423525 a15.718459495351926,15.718459495351926 0 0,0 -0.2705373749718828,-0.004657546254592188 l 0.12182326444488896 -4.716886589851058" fill="#42ffd7" stroke="none"><animate attributeName="opacity" dur="3s" keyTimes="0;0.5;1" repeatCount="indefinite" values="0;1;0" /></path><path d="M 59.52675543695017 70.98981526612454 l -0.32680899440360367 7.589248258147086 a18.59628154050465,18.59628154050465 0 0,0 -0.3196895009173411,-0.016524295573824503 l 0.457397007347058 -7.582498349507346" fill="#3bff9e" stroke="none"><animate attributeName="opacity" dur="3s" keyTimes="0;0.5;1" repeatCount="indefinite" values="0;1;0" /></path><path d="M 59.14874872843191 70.96701286917516 l -0.5968933218963504 7.690016991931591 a18.713147410358566,18.713147410358566 0 0,0 -0.3209355415609901,-0.027691668952213613 l 0.7291758870362431 -7.6786030955953155" fill="#3bff9c" stroke="none"><animate attributeName="opacity" dur="3s" keyTimes="0;0.5;1" repeatCount="indefinite" values="0;1;0" /></path><path d="M 58.39620883388138 70.88245624367403 l -1.1629083355919863 7.8908646866481 a18.97609561752988,18.97609561752988 0 0,0 -0.3227419430151077,-0.050405653975665946 l 1.2985643024020315 -7.869678014538236" fill="#3aff96" stroke="none"><animate attributeName="opacity" dur="3s" keyTimes="0;0.5;1" repeatCount="indefinite" values="0;1;0" /></path><path d="M 58.022567557018824 70.8208022315097 l -1.4495919103925772 7.93238091871628 a19.06374501992032,19.06374501992032 0 0,0 -0.3222974699818705,-0.061769077196467466 l 1.585920035626288 -7.906253309051567" fill="#3aff94" stroke="none"><animate attributeName="opacity" dur="3s" keyTimes="0;0.5;1" repeatCount="indefinite" values="0;1;0" /></path><path d="M 57.46663762746327 70.70430170956588 l -2.038801590647091 8.61461731208091 a19.852589641434264,19.852589641434264 0 0,0 -0.3318660182364982,-0.08156459302242246 l 2.1867859961300327 -8.5782463456559" fill="#38ff84" stroke="none"><animate attributeName="opacity" dur="3s" keyTimes="0;0.5;1" repeatCount="indefinite" values="0;1;0" /></path><line stroke="#FFFFFF" stroke-width="0.3" x1="38.11772818010894" x2="35.68636464456549" y1="99.32131966249864" y2="103.69035518055404"><animate attributeName="opacity" dur="3s" keyTimes="0;0.5;1" repeatCount="indefinite" values="0;1;0" /></line><path d="M 37.63145547300025 100.19512676610972 a46.0,46.0 0 0,1 -16.93027528149229,                     -16.28691140695599" fill="none" id="id8" stroke="none"><animate attributeName="opacity" dur="3s" keyTimes="0;0.5;1" repeatCount="indefinite" values="0;1;0" /></path><text fill="#FFFFFF" style="font-size:3.75px; font-family:Arial;" text-anchor="middle"><textPath startOffset="11.877802361517572" xlink:href="#id8">August</textPath><animate attributeName="opacity" dur="3s" keyTimes="0;0.5;1" repeatCount="indefinite" values="0;1;0" /></text><path d="M 54.65100022180441 69.61187813972188 l -6.442951924068263 11.577654014246683 a24.249667994687915,24.249667994687915 0 0,0 -0.36299585885149915,-0.20611852226585717 l 6.641287613211823 -11.465033833707446" fill="#ff9900" stroke="none"><animate attributeName="opacity" dur="3s" keyTimes="0;0.5;1" repeatCount="indefinite" values="0;1;0" /></path><path d="M 54.32331369882562 69.42206095491105 l -5.367597140021457 8.909040371708711 a21.40106241699867,21.40106241699867 0 0,0 -0.3139034460944062,-0.192825134829614 l 5.520156357508977 -8.815326039968994" fill="#35ff63" stroke="none"><animate attributeName="opacity" dur="3s" keyTimes="0;0.5;1" repeatCount="indefinite" values="0;1;0" /></path><path d="M 53.688505053052424 69.00916375334887 l -8.918234559830301 12.730079991451804 a26.54316069057105,26.54316069057105 0 0,0 -0.37194889636908224,-0.2653756617036356 l 9.136040627929754 -12.574681144972624" fill="#ff8700" stroke="none"><animate attributeName="opacity" dur="3s" keyTimes="0;0.5;1" repeatCount="indefinite" values="0;1;0" /></path><path d="M 53.2318694004034 68.67135561413578 l -6.3097313159585875 8.084052644254072 a21.254980079681275,21.254980079681275 0 0,0 -0.2864791835235998,-0.22759638944842117 l 6.447950138524614 -7.974243252231536" fill="#35ff66" stroke="none"><animate attributeName="opacity" dur="3s" keyTimes="0;0.5;1" repeatCount="indefinite" values="0;1;0" /></path><path d="M 52.9373981543978 68.43324701230175 l -6.67805114750168 7.9740662320834605 a21.40106241699867,21.40106241699867 0 0,0 -0.2803891004212188,-0.23895367429059233 l 6.814322164225167 -7.857933115295132" fill="#35ff63" stroke="none"><animate attributeName="opacity" dur="3s" keyTimes="0;0.5;1" repeatCount="indefinite" values="0;1;0" /></path><path d="M 52.511492495752826 68.05743478774937 l -10.65098477695714 11.460176172217231 a26.64541832669323,26.64541832669323 0 0,0 -0.33327602724231004,-0.3151332857983713 l 10.846674812689878 -11.275139029075754" fill="#ff8600" stroke="none"><animate attributeName="opacity" dur="3s" keyTimes="0;0.5;1" repeatCount="indefinite" values="0;1;0" /></path><path d="M 51.97486690504864 67.52311363787072 l -7.556201015033885 7.083516028220902 a21.357237715803453,21.357237715803453 0 0,0 -0.24912057589405467,-0.2703711832217026 l 7.67701256654475 -6.952398949627067" fill="#35ff64" stroke="none"><animate attributeName="opacity" dur="3s" keyTimes="0;0.5;1" repeatCount="indefinite" values="0;1;0" /></path><path d="M 51.72066489714791 67.24241743167855 l -6.256230642128602 5.4726899317730275 a19.312084993359893,19.312084993359893 0 0,0 -0.2167160706900484,-0.2520897504580425 l 6.349507074974772 -5.3641883674684685" fill="#3aff8f" stroke="none"><animate attributeName="opacity" dur="3s" keyTimes="0;0.5;1" repeatCount="indefinite" values="0;1;0" /></path><path d="M 51.35785159413415 66.80538543588754 l -7.391160124007451 5.820276521529323 a20.407702523240374,20.407702523240374 0 0,0 -0.2149545083039235,-0.2778576781421392 l 7.490251536568458 -5.692187513137384" fill="#37ff78" stroke="none"><animate attributeName="opacity" dur="3s" keyTimes="0;0.5;1" repeatCount="indefinite" values="0;1;0" /></path><path d="M 50.910103814037 66.19465796702411 l -12.856227673373969 8.76136883782294 a26.55776892430279,26.55776892430279 0 0,0 -0.25419186100020325,-0.3799823429907035 l 13.005135446732172 -8.538771920724425" fill="#ff8700" stroke="none"><animate attributeName="opacity" dur="3s" keyTimes="0;0.5;1" repeatCount="indefinite" values="0;1;0" /></path><line stroke="#FFFFFF" stroke-width="0.3" x1="21.158604237754" x2="16.842893597504442" y1="82.72324746246844" y2="85.24805273607605"><animate attributeName="opacity" dur="3s" keyTimes="0;0.5;1" repeatCount="indefinite" values="0;1;0" /></line><path d="M 20.29546210970409 83.22820851718997 a46.0,46.0 0 0,1 -6.274591021322525,                     -21.84267449423218" fill="none" id="id9" stroke="none"><animate attributeName="opacity" dur="3s" keyTimes="0;0.5;1" repeatCount="indefinite" values="0;1;0" /></path><text fill="#FFFFFF" style="font-size:3.75px; font-family:Arial;" text-anchor="middle"><textPath startOffset="11.481875616133665" xlink:href="#id9">September</textPath><animate attributeName="opacity" dur="3s" keyTimes="0;0.5;1" repeatCount="indefinite" values="0;1;0" /></text><path d="M 50.50543659145098 65.55457160193673 l -9.507172390499285 5.561948191049528 a22.01460823373174,22.01460823373174 0 0,0 -0.18853730220590922,-0.32873067825250396 l 9.601503595451678 -5.397473784014101" fill="#33ff55" stroke="none"><animate attributeName="opacity" dur="3s" keyTimes="0;0.5;1" repeatCount="indefinite" values="0;1;0" /></path><path d="M 50.23136945107558 65.05706013397315 l -13.15457022126078 6.809905678418028 a25.812749003984067,25.812749003984067 0 0,0 -0.2008739894621093,-0.3963434381290655 l 13.269842561563314 -6.582462415111366" fill="#ff8d00" stroke="none"><animate attributeName="opacity" dur="3s" keyTimes="0;0.5;1" repeatCount="indefinite" values="0;1;0" /></path><path d="M 49.98334906896362 64.54606468561195 l -14.752278728445342 6.695332983192099 a27.200531208499335,27.200531208499335 0 0,0 -0.18983239755479195,-0.4280219421967118 l 14.865342170383185 -6.440404769499214" fill="#ff8200" stroke="none"><animate attributeName="opacity" dur="3s" keyTimes="0;0.5;1" repeatCount="indefinite" values="0;1;0" /></path><path d="M 49.83280205587597 64.19858142293326 l -12.395070003593432 5.118589304452493 a24.410358565737052,24.410358565737052 0 0,0 -0.15703693463194554,-0.3897527932512107 l 12.481341640931628 -4.904470175664574" fill="#ff9700" stroke="none"><animate attributeName="opacity" dur="3s" keyTimes="0;0.5;1" repeatCount="indefinite" values="0;1;0" /></path><path d="M 49.694305190750256 63.84612200776352 l -22.445337964368633 8.376680070029446 a34.95750332005312,34.95750332005312 0 0,0 -0.20554302646932765,-0.565566131626382 l 22.586203222793078 -7.989079378066527" fill="#ffe615" stroke="none"><animate attributeName="opacity" dur="3s" keyTimes="0;0.5;1" repeatCount="indefinite" values="0;1;0" /></path><path d="M 49.56802261986611 63.48910417448017 l -13.909303173511848 4.652138899306887 a25.666666666666664,25.666666666666664 0 0,0 -0.13653169320236194,-0.4202013444715736 l 13.987321283913198 -4.41202384532313" fill="#ff8e00" stroke="none"><animate attributeName="opacity" dur="3s" keyTimes="0;0.5;1" repeatCount="indefinite" values="0;1;0" /></path><path d="M 49.35268438673529 62.76309070273302 l -1.3715665531031556 0.35593598693904704 a12.416998671978751,12.416998671978751 0 0,0 -0.0519081901815723,-0.20734741678583354 l 1.3774901936297586 -0.3322739876117225" fill="#4aeaff" stroke="none"><animate attributeName="opacity" dur="3s" keyTimes="0;0.5;1" repeatCount="indefinite" values="0;1;0" /></path><path d="M 49.26388394304395 62.394955534361856 l -8.711509841700062 1.9433171733002566 a19.92563081009296,19.92563081009296 0 0,0 -0.07179485758417067,-0.3354016728944462 l 8.743670148139891 -1.7930749283306768" fill="#38ff82" stroke="none"><animate attributeName="opacity" dur="3s" keyTimes="0;0.5;1" repeatCount="indefinite" values="0;1;0" /></path><path d="M 49.22424939189961 62.20979610643699 l -6.96917735211805 1.4291775615336169 a18.11420982735724,18.11420982735724 0 0,0 -0.060009847227718315,-0.30598891815551105 l 6.992745735666356 -1.3090028815806056" fill="#3cffa8" stroke="none"><animate attributeName="opacity" dur="3s" keyTimes="0;0.5;1" repeatCount="indefinite" values="0;1;0" /></path><path d="M 49.187807928220195 62.023981868234486 l -9.548615840283626 1.7874474666347075 a20.714475431606907,20.714475431606907 0 0,0 -0.0625908172006156,-0.35104254259554374 l 9.577969079661912 -1.6228189117503375" fill="#36ff72" stroke="none"><animate attributeName="opacity" dur="3s" keyTimes="0;0.5;1" repeatCount="indefinite" values="0;1;0" /></path><path d="M 49.02291123048069 60.70959294394248 l -14.65069616648992 0.947066279763866 a25.681274900398407,25.681274900398407 0 0,0 -0.02471963236178545,-0.44138564152945725 l 14.664827696935651 -0.6947383106301319" fill="#ff8e00" stroke="none"><animate attributeName="opacity" dur="3s" keyTimes="0;0.5;1" repeatCount="indefinite" values="0;1;0" /></path><path d="M 49.00499091243907 60.331323353315994 l -8.804768233465127 0.2653226853247585 a19.808764940239044,19.808764940239044 0 0,0 -0.007336730094885778,-0.34090901838199195 l 8.808030805918827 -0.11372376343365145" fill="#38ff85" stroke="none"><animate attributeName="opacity" dur="3s" keyTimes="0;0.5;1" repeatCount="indefinite" values="0;1;0" /></path><line stroke="#FFFFFF" stroke-width="0.3" x1="15.003750360536792" x2="10.004167067263104" y1="60.580963323375435" y2="60.64551480375049"><animate attributeName="opacity" dur="3s" keyTimes="0;0.5;1" repeatCount="indefinite" values="0;1;0" /></line><path d="M 14.003833701882058 60.59387361945045 a46.0,46.0 0 0,1 5.705147861482751,                     -22.789229740466457" fill="none" id="id10" stroke="none"><animate attributeName="opacity" dur="3s" keyTimes="0;0.5;1" repeatCount="indefinite" values="0;1;0" /></path><text fill="#FFFFFF" style="font-size:3.75px; font-family:Arial;" text-anchor="middle"><textPath startOffset="11.877802361517572" xlink:href="#id10">October</textPath><animate attributeName="opacity" dur="3s" keyTimes="0;0.5;1" repeatCount="indefinite" values="0;1;0" /></text><path d="M 49.000916754797885 60.14201325682511 l -9.52377460275137 0.12296499794152697 a20.52456839309429,20.52456839309429 0 0,0 -0.0015204822229008368,-0.3533065208601908 l 9.524480193078297 0.04098934483487476" fill="#37ff76" stroke="none"><animate attributeName="opacity" dur="3s" keyTimes="0;0.5;1" repeatCount="indefinite" values="0;1;0" /></path><path d="M 49.00010186290191 59.952661078741315 l -8.808683368751858 -0.03790885726292864 a19.808764940239044,19.808764940239044 0 0,0 0.0044022554753781595,-0.34095953802377793 l 8.806725728595772 0.18953024474695376" fill="#38ff85" stroke="none"><animate attributeName="opacity" dur="3s" keyTimes="0;0.5;1" repeatCount="indefinite" values="0;1;0" /></path><path d="M 49.13915613366615 58.25584676386553 l -7.168445420408929 -1.1511874612999107 a18.260292164674635,18.260292164674635 0 0,0 0.052509764377217064,-0.30991560176167493 l 7.147567538092548 1.2744099045603527" fill="#3cffa5" stroke="none"><animate attributeName="opacity" dur="3s" keyTimes="0;0.5;1" repeatCount="indefinite" values="0;1;0" /></path><path d="M 49.20562882701229 57.88303259832088 l -3.698469804290608 -0.7253354444000172 a14.768924302788845,14.768924302788845 0 0,0 0.05107284197365113,-0.24904931561416563 l 3.6854363787424362 0.7888910560997746" fill="#44ffe9" stroke="none"><animate attributeName="opacity" dur="3s" keyTimes="0;0.5;1" repeatCount="indefinite" values="0;1;0" /></path><path d="M 49.243668243437774 57.69753889440647 l -11.384855790146206 -2.437000665548528 a22.642762284196547,22.642762284196547 0 0,0 0.0848624993116587,-0.3804219445502558 l 11.341220040500147 2.6326111751011436" fill="#ffa500" stroke="none"><animate attributeName="opacity" dur="3s" keyTimes="0;0.5;1" repeatCount="indefinite" values="0;1;0" /></path><path d="M 49.32929685963342 57.3286530569447 l -13.448203559373018 -3.366677621460125 a24.863213811420984,24.863213811420984 0 0,0 0.10750814359856484,-0.41427273261709807 l 13.388259241937625 3.597667529364723" fill="#ff9400" stroke="none"><animate attributeName="opacity" dur="3s" keyTimes="0;0.5;1" repeatCount="indefinite" values="0;1;0" /></path><path d="M 49.59843973830143 56.421237068168224 l -6.437087758235768 -2.21474571876973 a17.807436918990703,17.807436918990703 0 0,0 0.10222055520276126,-0.28899127472621083 l 6.398010827370726 2.3252214644813085" fill="#3dffae" stroke="none"><animate attributeName="opacity" dur="3s" keyTimes="0;0.5;1" repeatCount="indefinite" values="0;1;0" /></path><path d="M 49.72779048294782 56.06531937283563 l -6.520738577889697 -2.4977122706302377 a17.98273572377158,17.98273572377158 0 0,0 0.11321112635502566,-0.2881099680456882 l 6.47677844921569 2.6095860031451354" fill="#3dffaa" stroke="none"><animate attributeName="opacity" dur="3s" keyTimes="0;0.5;1" repeatCount="indefinite" values="0;1;0" /></path><path d="M 49.797041480628835 55.88908313730484 l -17.357224254069667 -6.993472113031211 a29.713147410358566,29.713147410358566 0 0,0 0.19522714080871229,-0.472758006746197 l 17.234271467749135 7.291212037633905" fill="#ff6e00" stroke="none"><animate attributeName="opacity" dur="3s" keyTimes="0;0.5;1" repeatCount="indefinite" values="0;1;0" /></path><path d="M 50.022848059171004 55.36789042124302 l -6.280438273509886 -2.9158299340382583 a17.92430278884462,17.92430278884462 0 0,0 0.13233410850046667,-0.2787293819072748 l 6.22931653966374 3.023505343185812" fill="#3dffac" stroke="none"><animate attributeName="opacity" dur="3s" keyTimes="0;0.5;1" repeatCount="indefinite" values="0;1;0" /></path><path d="M 50.275257390623 54.859048611261976 l -18.041786753386017 -9.537727875255005 a31.407702523240374,31.407702523240374 0 0,0 0.25678324501885424,-0.475780354403783 l 17.87493736115749 9.846874459023416" fill="#c9ff1d" stroke="none"><animate attributeName="opacity" dur="3s" keyTimes="0;0.5;1" repeatCount="indefinite" values="0;1;0" /></path><line stroke="#FFFFFF" stroke-width="0.3" x1="20.964464037168128" x2="16.62718226352014" y1="37.61190199917689" y2="35.124335554640986"><animate attributeName="opacity" dur="3s" keyTimes="0;0.5;1" repeatCount="indefinite" values="0;1;0" /></line><path d="M 20.09700768243853 37.11438871026971 a46.0,46.0 0 0,1 15.825874378746157,                     -16.309954680929934" fill="none" id="id11" stroke="none"><animate attributeName="opacity" dur="3s" keyTimes="0;0.5;1" repeatCount="indefinite" values="0;1;0" /></path><text fill="#FFFFFF" style="font-size:3.75px; font-family:Arial;" text-anchor="middle"><textPath startOffset="11.481875616133665" xlink:href="#id11">November</textPath><animate attributeName="opacity" dur="3s" keyTimes="0;0.5;1" repeatCount="indefinite" values="0;1;0" /></text><path d="M 50.55359645896617 54.36391446658734 l -11.57905772692461 -6.9085085622043625 a24.483399734395753,24.483399734395753 0 0,0 0.21904971496839973,-0.36006013616356014 l 11.45842354618724 7.1067994367144856" fill="#ff9700" stroke="none"><animate attributeName="opacity" dur="3s" keyTimes="0;0.5;1" repeatCount="indefinite" values="0;1;0" /></path><path d="M 51.185028030078556 53.42000994153493 l -1.22917935835558 -0.9175284942082771 a12.533864541832669,12.533864541832669 0 0,0 0.1305456065367015,-0.1717827158183059 l 1.2132034974157737 0.9385508545356922" fill="#49edff" stroke="none"><animate attributeName="opacity" dur="3s" keyTimes="0;0.5;1" repeatCount="indefinite" values="0;1;0" /></path><path d="M 51.29959777567545 53.26924958604403 l -10.38733280168363 -8.035783030738932 a24.132802124834,24.132802124834 0 0,0 0.2570096532882033,-0.32637615993709085 l 10.247471010941442 8.213393301794286" fill="#ff9a00" stroke="none"><animate attributeName="opacity" dur="3s" keyTimes="0;0.5;1" repeatCount="indefinite" values="0;1;0" /></path><path d="M 51.536436904276684 52.973756357433196 l -7.485701224105879 -6.214446568326017 a20.729083665338646,20.729083665338646 0 0,0 0.23027977196480606,-0.2725786160272643 l 7.377620654600198 6.342379872254247" fill="#36ff71" stroke="none"><animate attributeName="opacity" dur="3s" keyTimes="0;0.5;1" repeatCount="indefinite" values="0;1;0" /></path><path d="M 51.78330703533789 52.68659062239285 l -7.2018822797835185 -6.410159613838938 a20.641434262948206,20.641434262948206 0 0,0 0.23851310908144013,-0.2633721322626504 l 7.09047488276034 6.533178444195165" fill="#37ff73" stroke="none"><animate attributeName="opacity" dur="3s" keyTimes="0;0.5;1" repeatCount="indefinite" values="0;1;0" /></path><path d="M 51.91041274739616 52.546237320486426 l -14.986685547652538 -13.808763529776144 a31.37848605577689,31.37848605577689 0 0,0 0.3694184352420203,-0.39406982976066723 l 14.746769943759325 14.064688768377694" fill="#c8ff1d" stroke="none"><animate attributeName="opacity" dur="3s" keyTimes="0;0.5;1" repeatCount="indefinite" values="0;1;0" /></path><path d="M 52.305958402431884 52.13859275352743 l -7.499902433751658 -7.663045045034351 a21.722443559096945,21.722443559096945 0 0,0 0.26947907318228814,-0.25923865489336856 l 7.366884518677146 7.791008173946074" fill="#34ff5c" stroke="none"><animate attributeName="opacity" dur="3s" keyTimes="0;0.5;1" repeatCount="indefinite" values="0;1;0" /></path><path d="M 52.58112019283759 51.87841010596584 l -6.827734005794888 -7.474451257059329 a21.12350597609562,21.12350597609562 0 0,0 0.27057100052478844,-0.24292131578548357 l 6.698062011767448 7.59087205362872" fill="#35ff69" stroke="none"><animate attributeName="opacity" dur="3s" keyTimes="0;0.5;1" repeatCount="indefinite" values="0;1;0" /></path><path d="M 52.8650748286152 51.62785315473148 l -10.849255406687378 -12.73055529592623 a27.726427622841964,27.726427622841964 0 0,0 0.3659128782247324,-0.3064415124221833 l 10.628512390055493 12.915421224126124" fill="#ff7e00" stroke="none"><animate attributeName="opacity" dur="3s" keyTimes="0;0.5;1" repeatCount="indefinite" values="0;1;0" /></path><path d="M 53.15748576715045 51.38721885955231 l -4.788851262565355 -6.0278030026772 a18.698539176626827,18.698539176626827 0 0,0 0.25373690149593925,-0.19804567632562056 l 4.6843830226525744 6.10934212097689" fill="#3bff9c" stroke="none"><animate attributeName="opacity" dur="3s" keyTimes="0;0.5;1" repeatCount="indefinite" values="0;1;0" /></path><path d="M 53.45800644343159 51.15679241983897 l -6.385611240475135 -8.631816163902197 a21.737051792828684,21.737051792828684 0 0,0 0.3027191716891988,-0.21993835227476002 l 6.236082617362526 8.740455067747593" fill="#34ff5b" stroke="none"><animate attributeName="opacity" dur="3s" keyTimes="0;0.5;1" repeatCount="indefinite" values="0;1;0" /></path><path d="M 54.081943113078694 50.7276430890974 l -13.604457465153757 -21.3153383967761 a36.28685258964143,36.28685258964143 0 0,0 0.5294093644837065,-0.33151609547159006 l 13.235533306570305 21.54635867103589" fill="#ffc612" stroke="none"><animate attributeName="opacity" dur="3s" keyTimes="0;0.5;1" repeatCount="indefinite" values="0;1;0" /></path><line stroke="#FFFFFF" stroke-width="0.3" x1="37.109807526655274" x2="34.566452807394754" y1="21.256754284995267" y2="16.951949205550292"><animate attributeName="opacity" dur="3s" keyTimes="0;0.5;1" repeatCount="indefinite" values="0;1;0" /></line><path d="M 36.60113658280317 20.39579326910627 a46.0,46.0 0 0,1 22.607049034028407,                     -6.388977872725619" fill="none" id="id12" stroke="none"><animate attributeName="opacity" dur="3s" keyTimes="0;0.5;1" repeatCount="indefinite" values="0;1;0" /></path><text fill="#FFFFFF" style="font-size:3.75px; font-family:Arial;" text-anchor="middle"><textPath startOffset="11.877802361517572" xlink:href="#id12">December</textPath><animate attributeName="opacity" dur="3s" keyTimes="0;0.5;1" repeatCount="indefinite" values="0;1;0" /></text><path d="M 54.40461961762684 50.52942882522106 l -5.045502363388276 -8.53986431298127 a20.91899070385126,20.91899070385126 0 0,0 0.31159660217582225,-0.18049686414924282 l 4.897755091825857 8.625449069096728" fill="#36ff6d" stroke="none"><animate attributeName="opacity" dur="3s" keyTimes="0;0.5;1" repeatCount="indefinite" values="0;1;0" /></path><path d="M 54.900947020068635 50.25322316312448 l -5.4037772616005695 -10.329253540274454 a22.65737051792829,22.65737051792829 0 0,0 0.34713196871233176,-0.1778144770532694 l 5.225175513675076 10.420740292491416" fill="#ffa500" stroke="none"><animate attributeName="opacity" dur="3s" keyTimes="0;0.5;1" repeatCount="indefinite" values="0;1;0" /></path><path d="M 55.06947724085548 50.16689543828818 l -9.324122721144494 -18.59540623622528 a31.802124833997343,31.802124833997343 0 0,0 0.49146206089302025,-0.24115829888390783 l 9.00265190134125 18.753150571370288" fill="#d1ff1c" stroke="none"><animate attributeName="opacity" dur="3s" keyTimes="0;0.5;1" repeatCount="indefinite" values="0;1;0" /></path><path d="M 55.75770253132032 49.85096496275464 l -1.774666271758433 -4.245612266576746 a15.601593625498008,15.601593625498008 0 0,0 0.248671668884823,-0.1014394175118787 l 1.7013220997558867 4.275531195899069" fill="#42ffd9" stroke="none"><animate attributeName="opacity" dur="3s" keyTimes="0;0.5;1" repeatCount="indefinite" values="0;1;0" /></path><path d="M 57.19111375372193 49.36467405034195 l -5.3641147704486905 -20.31022405791272 a32.006640106241704,32.006640106241704 0 0,0 0.5338876920130797,-0.1360998601994706 l 5.01371289864823 20.39954929705779" fill="#d6ff1c" stroke="none"><animate attributeName="opacity" dur="3s" keyTimes="0;0.5;1" repeatCount="indefinite" values="0;1;0" /></path><path d="M 58.86588132807821 49.05862098097327 l -0.3750272899183607 -3.618065572028759 a14.637450199203187,14.637450199203187 0 0,0 0.2508405014362496,-0.023820328106853854 l 0.3126926742919873 3.6239849948816603" fill="#45ffeb" stroke="none"><animate attributeName="opacity" dur="3s" keyTimes="0;0.5;1" repeatCount="indefinite" values="0;1;0" /></path><path d="M 59.24317330517448 49.02606664162756 l -0.6291812894565387 -9.123084040293689 a20.144754316069054,20.144754316069054 0 0,0 0.34614247019235805,-0.02088025907608499 l 0.47204917463390195 9.13256267856898" fill="#38ff7e" stroke="none"><animate attributeName="opacity" dur="3s" keyTimes="0;0.5;1" repeatCount="indefinite" values="0;1;0" /></path><text alignment-baseline="middle" fill="#FFFFFF" style="dominant-baseline: central; font-size:5.0px;                        font-family:Arial;" text-anchor="middle" x="60.0" y="60.0">2022<animate attributeName="opacity" dur="3s" keyTimes="0;0.5;1" repeatCount="indefinite" values="0;0;1" /></text><text alignment-baseline="middle" fill="#FFFFFF" style="dominant-baseline: central; font-size:5.0px;                        font-family:Arial;" text-anchor="middle" x="108" y="8">1104 km<animate attributeName="opacity" dur="3s" keyTimes="0;0.5;1" repeatCount="indefinite" values="0;0;1" /></text><text alignment-baseline="middle" fill="#FFFFFF" style="dominant-baseline: central; font-size:5.0px;                        font-family:Arial;" text-anchor="middle" x="14" y="8">蝴蝶 Strava<animate attributeName="opacity" dur="3s" keyTimes="0;0.5;1" repeatCount="indefinite" values="0;0;1" /></text><line stroke="#FFFFFF" stroke-width="0.3" x1="60.0" x2="60.0" y1="15.0" y2="10.0"><animate attributeName="opacity" dur="3s" keyTimes="0;0.5;1" repeatCount="indefinite" values="0;0;1" /></line><path d="M 60.0 14.0 a46.0,46.0 0 0,1 22.71367530735895,                     5.998888090055893" fill="none" id="id13" stroke="none"><animate attributeName="opacity" dur="3s" keyTimes="0;0.5;1" repeatCount="indefinite" values="0;0;1" /></path><text fill="#FFFFFF" style="font-size:3.75px; font-family:Arial;" text-anchor="middle"><textPath startOffset="11.877802361517572" xlink:href="#id13">January</textPath><animate attributeName="opacity" dur="3s" keyTimes="0;0.5;1" repeatCount="indefinite" values="0;0;1" /></text><path d="M 62.44113664304582 49.27429014517086 l 2.920935080191613 -12.833817502259043 a24.16201859229748,24.16201859229748 0 0,0 0.4047440864733983,0.09578984851129045 l -3.1414153836453806 12.78163693786444" fill="#ff9900" stroke="none"><animate attributeName="opacity" dur="3s" keyTimes="0;0.5;1" repeatCount="indefinite" values="0;0;1" /></path><path d="M 63.173306761686696 49.46766292809457 l 1.8542562750891738 -6.154353667514464 a17.427622841965473,17.427622841965473 0 0,0 0.2864890630441564,0.08901354644512001 l -1.9599186286008492 6.121523859940404" fill="#3effb6" stroke="none"><animate attributeName="opacity" dur="3s" keyTimes="0;0.5;1" repeatCount="indefinite" values="0;0;1" /></path><path d="M 63.35413347121918 49.523846666965625 l 2.3875372384773974 -7.4571290657455815 a18.830013280212484,18.830013280212484 0 0,0 0.30784128650001663,0.10149043215887496 l -2.515545717580585 7.41492668278425" fill="#3bff99" stroke="none"><animate attributeName="opacity" dur="3s" keyTimes="0;0.5;1" repeatCount="indefinite" values="0;0;1" /></path><path d="M 63.533966278616006 49.58313471616317 l 0.0 0.0 a11.0,11.0 0 0,0 0.1787856169192376,0.06237479119551037 l 0.0 0.0" fill="#4dd2ff" stroke="none"><animate attributeName="opacity" dur="3s" keyTimes="0;0.5;1" repeatCount="indefinite" values="0;0;1" /></path><path d="M 63.71275189553525 49.64550950735868 l 11.138255686605739 -31.063471477923954 a44.0,44.0 0 0,0 0.7107417936193636,0.26177220078674823 l -11.671312031820262 30.86714232733389" fill="#ff0000" stroke="none"><animate attributeName="opacity" dur="3s" keyTimes="0;0.5;1" repeatCount="indefinite" values="0;0;1" /></path><path d="M 64.4163678812657 49.92549282905984 l 4.885570312210266 -11.144839938105115 a23.168658698539176,23.168658698539176 0 0,0 0.36387799666278076,0.16326145031357717 l -5.076686561403265 11.059091647997164" fill="#ffa100" stroke="none"><animate attributeName="opacity" dur="3s" keyTimes="0;0.5;1" repeatCount="indefinite" values="0;0;1" /></path><path d="M 64.76053151805475 50.083481474549274 l 2.5288348037475403 -5.267738924542219 a16.843293492695885,16.843293492695885 0 0,0 0.26029203316933497,0.12772417024030394 l -2.6191355958271014 5.223428718040813" fill="#3fffc1" stroke="none"><animate attributeName="opacity" dur="3s" keyTimes="0;0.5;1" repeatCount="indefinite" values="0;0;1" /></path><path d="M 65.26607224127368 50.34243906829023 l 9.895740001862213 -18.148006266094722 a31.670650730411687,31.670650730411687 0 0,0 0.47638074519762896,0.26510536893599124 l -10.206661936573765 17.974978546055777" fill="#ceff1d" stroke="none"><animate attributeName="opacity" dur="3s" keyTimes="0;0.5;1" repeatCount="indefinite" values="0;0;1" /></path><line stroke="#FFFFFF" stroke-width="0.3" x1="82.8901924733447" x2="85.43354719260522" y1="21.256754284995253" y2="16.951949205550285"><animate attributeName="opacity" dur="3s" keyTimes="0;0.5;1" repeatCount="indefinite" values="0;0;1" /></line><path d="M 83.39886341719681 20.395793269106264 a46.0,46.0 0 0,1 15.269583241989189,                     14.68932698071859" fill="none" id="id14" stroke="none"><animate attributeName="opacity" dur="3s" keyTimes="0;0.5;1" repeatCount="indefinite" values="0;0;1" /></path><text fill="#FFFFFF" style="font-size:3.75px; font-family:Arial;" text-anchor="middle"><textPath startOffset="10.690022125365816" xlink:href="#id14">February</textPath><animate attributeName="opacity" dur="3s" keyTimes="0;0.5;1" repeatCount="indefinite" values="0;0;1" /></text><path d="M 65.75757168102105 50.6271472678856 l 6.116942024989166 -9.957878068647439 a22.686586985391767,22.686586985391767 0 0,0 0.33098741668403386,0.20726428996269802 l -6.287444235772957 9.851109599896533" fill="#ffa500" stroke="none"><animate attributeName="opacity" dur="3s" keyTimes="0;0.5;1" repeatCount="indefinite" values="0;0;1" /></path><path d="M 66.84251423284954 51.387218859552306 l 6.797079211383078 -8.55559135863861 a21.926958831341302,21.926958831341302 0 0,0 0.2935044574907789,0.2373268594240154 l -6.943342591931448 8.43732321017148" fill="#34ff57" stroke="none"><animate attributeName="opacity" dur="3s" keyTimes="0;0.5;1" repeatCount="indefinite" values="0;0;1" /></path><path d="M 67.27798080066506 51.75190958674975 l 9.68464377459016 -10.97554660567962 a25.637450199203187,25.637450199203187 0 0,0 0.328390114744793,0.2948318874159687 l -9.872134882837615 10.807215237479735" fill="#ff8e00" stroke="none"><animate attributeName="opacity" dur="3s" keyTimes="0;0.5;1" repeatCount="indefinite" values="0;0;1" /></path><path d="M 67.4188798071624 51.87841010596583 l 13.251518380655282 -14.506691112185871 a30.648074369189906,30.648074369189906 0 0,0 0.38644611761098624,0.3591595499000472 l -13.49926386596833 14.276438683865774" fill="#b8ff1f" stroke="none"><animate attributeName="opacity" dur="3s" keyTimes="0;0.5;1" repeatCount="indefinite" values="0;0;1" /></path><path d="M 67.82822284509952 52.27219778413927 l 13.514860157542333 -13.34149120932131 a29.99070385126162,29.99070385126162 0 0,0 0.3595110436218737,0.3705077323652544 l -13.742509625008694 13.10687842214409" fill="#ff6c00" stroke="none"><animate attributeName="opacity" dur="3s" keyTimes="0;0.5;1" repeatCount="indefinite" values="0;0;1" /></path><path d="M 68.08958725260383 52.54623732048642 l 11.838944425457411 -10.908428250762235 a27.098273572377156,27.098273572377156 0 0,0 0.31312230526970164,0.34575747016789043 l -12.024961018668845 10.70302408250077" fill="#ff8300" stroke="none"><animate attributeName="opacity" dur="3s" keyTimes="0;0.5;1" repeatCount="indefinite" values="0;0;1" /></path><path d="M 68.34136389326419 52.82911104533416 l 17.724013584625098 -15.236948642052246 a34.37317397078353,34.37317397078353 0 0,0 0.38185222229260385,0.4519925888035056 l -17.983666604458573 14.92960136534778" fill="#fff316" stroke="none"><animate attributeName="opacity" dur="3s" keyTimes="0;0.5;1" repeatCount="indefinite" values="0;0;1" /></path><path d="M 68.70040222432455 53.26924958604403 l 15.02061472990958 -11.620153437108575 a29.99070385126162,29.99070385126162 0 0,0 0.3123661191373455,0.4110371976398292 l -15.218411103450034 11.359876594959633" fill="#ff6c00" stroke="none"><animate attributeName="opacity" dur="3s" keyTimes="0;0.5;1" repeatCount="indefinite" values="0;0;1" /></path><path d="M 68.92692964908098 53.57272009008795 l 15.66065613072505 -11.275480426286617 a30.297476759628154,30.297476759628154 0 0,0 0.30108100245331154,0.42585772601217164 l -15.852424695932777 11.004237390576838" fill="#ff6a00" stroke="none"><animate attributeName="opacity" dur="3s" keyTimes="0;0.5;1" repeatCount="indefinite" values="0;0;1" /></path><path d="M 69.14287689002389 53.883808196772506 l 21.855482605634787 -14.620378812495993 a37.29482071713147,37.29482071713147 0 0,0 0.35235323400008817,0.5366581489480162 l -22.103910267679503 14.24200643955967" fill="#ffae10" stroke="none"><animate attributeName="opacity" dur="3s" keyTimes="0;0.5;1" repeatCount="indefinite" values="0;0;1" /></path><line stroke="#FFFFFF" stroke-width="0.3" x1="98.24176911873874" x2="102.49085457637639" y1="36.281503111093244" y2="33.64611456788138"><animate attributeName="opacity" dur="3s" keyTimes="0;0.5;1" repeatCount="indefinite" values="0;0;1" /></line><path d="M 99.09158621026629 35.75442540245088 a46.0,46.0 0 0,1 6.87391430675916,                     22.464349676509087" fill="none" id="id15" stroke="none"><animate attributeName="opacity" dur="3s" keyTimes="0;0.5;1" repeatCount="indefinite" values="0;0;1" /></path><text fill="#FFFFFF" style="font-size:3.75px; font-family:Arial;" text-anchor="middle"><textPath startOffset="11.877802361517572" xlink:href="#id15">March</textPath><animate attributeName="opacity" dur="3s" keyTimes="0;0.5;1" repeatCount="indefinite" values="0;0;1" /></text><path d="M 69.44640354103383 54.36391446658734 l 17.563034472041654 -10.478777884166966 a31.45152722443559,31.45152722443559 0 0,0 0.27338914371208745,0.46731066699694535 l -17.740807254762007 10.174906572603694" fill="#caff1d" stroke="none"><animate attributeName="opacity" dur="3s" keyTimes="0;0.5;1" repeatCount="indefinite" values="0;0;1" /></path><path d="M 69.81179481105504 55.02720575674465 l 24.744486515529225 -12.540951219046354 a38.7410358565737,38.7410358565737 0 0,0 0.2963504522938834,0.5974244282747507 l -24.956692212703466 12.113157482510248" fill="#ff8a0c" stroke="none"><animate attributeName="opacity" dur="3s" keyTimes="0;0.5;1" repeatCount="indefinite" values="0;0;1" /></path><path d="M 69.977151940829 55.36789042124302 l 11.93813266757892 -5.54253749065079 a24.16201859229748,24.16201859229748 0 0,0 0.17189283786560838,0.3787430829777721 l -12.031769576234852 5.336220974470033" fill="#ff9900" stroke="none"><animate attributeName="opacity" dur="3s" keyTimes="0;0.5;1" repeatCount="indefinite" values="0;0;1" /></path><path d="M 70.20295851937117 55.88908313730484 l 20.50076525870992 -8.260049419997046 a33.102257636122175,33.102257636122175 0 0,0 0.20839676061776607,0.530347024850925 l -20.639911021646668 7.905938630676901" fill="#eeff19" stroke="none"><animate attributeName="opacity" dur="3s" keyTimes="0;0.5;1" repeatCount="indefinite" values="0;0;1" /></path><path d="M 70.33841663736085 56.242721539153585 l 22.37930825882893 -8.133285380052659 a34.811420982735726,34.811420982735726 0 0,0 0.1998290262905497,0.5649435665894614 l -22.515993660781763 7.746857342477828" fill="#ffe915" stroke="none"><animate attributeName="opacity" dur="3s" keyTimes="0;0.5;1" repeatCount="indefinite" values="0;0;1" /></path><path d="M 70.51858309251097 56.781396308033166 l 19.7380583130385 -6.039690593292343 a31.64143426294821,31.64143426294821 0 0,0 0.15488346900756222,0.5221900607966343 l -19.839097251961714 5.699037520390383" fill="#ceff1d" stroke="none"><animate attributeName="opacity" dur="3s" keyTimes="0;0.5;1" repeatCount="indefinite" values="0;0;1" /></path><path d="M 70.6231393142034 57.1453702322322 l 19.92014968347305 -5.3529046906880895 a31.626826029216467,31.626826029216467 0 0,0 0.13675389594060214,0.5269685464841667 l -20.009339753250476 5.00921896891643" fill="#cdff1d" stroke="none"><animate attributeName="opacity" dur="3s" keyTimes="0;0.5;1" repeatCount="indefinite" values="0;0;1" /></path><path d="M 70.71510500689662 57.51272745940883 l 30.09621127435108 -6.9861639088317755 a41.896414342629484,41.896414342629484 0 0,0 0.15702299872634656,0.7039033141742705 l -30.212007523411827 6.467072029655143" fill="#ff3905" stroke="none"><animate attributeName="opacity" dur="3s" keyTimes="0;0.5;1" repeatCount="indefinite" values="0;0;1" /></path><path d="M 70.82921198427302 58.06915360536429 l 20.133993065049427 -3.5898870550995943 a31.45152722443559,31.45152722443559 0 0,0 0.09044281816331867,0.533798632474294 l -20.192804001151913 3.2427815811265277" fill="#caff1d" stroke="none"><animate attributeName="opacity" dur="3s" keyTimes="0;0.5;1" repeatCount="indefinite" values="0;0;1" /></path><path d="M 70.9827896327112 59.384913108893365 l 21.119627341521685 -1.1827965714773025 a32.1527224435591,32.1527224435591 0 0,0 0.026191288879960594,0.552856712676314 l -21.136858139476335 0.819081660093703" fill="#d9ff1c" stroke="none"><animate attributeName="opacity" dur="3s" keyTimes="0;0.5;1" repeatCount="indefinite" values="0;0;1" /></path><line stroke="#FFFFFF" stroke-width="0.3" x1="104.98958258909508" x2="109.98842509899454" y1="59.03177561537" y2="58.924195128188884"><animate attributeName="opacity" dur="3s" keyTimes="0;0.5;1" repeatCount="indefinite" values="0;0;1" /></line><path d="M 105.98935109107498 59.010259517933775 a46.0,46.0 0 0,1 -5.138714250118292,                     22.137446496863006" fill="none" id="id16" stroke="none"><animate attributeName="opacity" dur="3s" keyTimes="0;0.5;1" repeatCount="indefinite" values="0;0;1" /></path><text fill="#FFFFFF" style="font-size:3.75px; font-family:Arial;" text-anchor="middle"><textPath startOffset="11.48187561613365" xlink:href="#id16">April</textPath><animate attributeName="opacity" dur="3s" keyTimes="0;0.5;1" repeatCount="indefinite" values="0;0;1" /></text><path d="M 70.9974535217788 59.76332292820155 l 20.768099479375106 -0.4469519204480591 a31.772908366533866,31.772908366533866 0 0,0 0.007061139866480455,0.5468930643080648 l -20.772716003922294 0.08939700667975188" fill="#d1ff1d" stroke="none"><animate attributeName="opacity" dur="3s" keyTimes="0;0.5;1" repeatCount="indefinite" values="0;0;1" /></path><path d="M 70.99908324520212 60.142013256825095 l 9.129385163680377 0.11787288913105665 a20.13014608233732,20.13014608233732 0 0,0 -0.007455762589050592,0.34643999065663944 l -9.126003558732513 -0.2750027832968039" fill="#38ff7e" stroke="none"><animate attributeName="opacity" dur="3s" keyTimes="0;0.5;1" repeatCount="indefinite" values="0;0;1" /></path><path d="M 70.98767687143537 60.52053527154675 l 3.2685785115558077 0.15484714585188786 a14.272244355909695,14.272244355909695 0 0,0 -0.013737816164657093,0.2452979361628537 l -3.265428797307207 -0.21108740961901093" fill="#45fff2" stroke="none"><animate attributeName="opacity" dur="3s" keyTimes="0;0.5;1" repeatCount="indefinite" values="0;0;1" /></path><path d="M 70.97708876951931 60.709592943942475 l 25.9776523071493 1.6792757318798102 a37.031872509960166,37.031872509960166 0 0,0 -0.046595690991269464,0.6357611831270198 l -25.944897466381473 -2.126189510314662" fill="#ffb410" stroke="none"><animate attributeName="opacity" dur="3s" keyTimes="0;0.5;1" repeatCount="indefinite" values="0;0;1" /></path><path d="M 70.94615842210767 61.087021526061584 l 21.95046376810436 2.179817402859222 a33.058432934926955,33.058432934926955 0 0,0 -0.06110725154836624,0.5657772566446523 l -21.90968959672211 -2.5573355900149557" fill="#edff1a" stroke="none"><animate attributeName="opacity" dur="3s" keyTimes="0;0.5;1" repeatCount="indefinite" values="0;0;1" /></path><path d="M 70.90225470392801 61.46316177187615 l 17.403067933760237 2.335618127217979 a28.55909694555113,28.55909694555113 0 0,0 -0.06958349034895264,0.48666676943409204 l -17.360285654783542 -2.634837286737047" fill="#ff7700" stroke="none"><animate attributeName="opacity" dur="3s" keyTimes="0;0.5;1" repeatCount="indefinite" values="0;0;1" /></path><path d="M 70.84542964960214 61.83756788052331 l 5.732378486775099 0.9712510178595978 a16.814077025232404,16.814077025232404 0 0,0 -0.05080538123970984,0.2849435589051238 l -5.714810683357719 -1.0697805890535501" fill="#3fffc2" stroke="none"><animate attributeName="opacity" dur="3s" keyTimes="0;0.5;1" repeatCount="indefinite" values="0;0;1" /></path><path d="M 70.8121920717798 62.02398186823448 l 22.758730987743682 4.2603071197233096 a34.15405046480744,34.15405046480744 0 0,0 -0.11314759904710493,0.5769371698771006 l -22.682024852375992 -4.651430051397905" fill="#fff817" stroke="none"><animate attributeName="opacity" dur="3s" keyTimes="0;0.5;1" repeatCount="indefinite" values="0;0;1" /></path><path d="M 70.64731561326471 62.76309070273301 l 22.948995007076523 5.955506255691475 a34.70916334661355,34.70916334661355 0 0,0 -0.15505397057682355,0.5770135060092249 l -22.84308061555877 -6.349653107649797" fill="#ffeb16" stroke="none"><animate attributeName="opacity" dur="3s" keyTimes="0;0.5;1" repeatCount="indefinite" values="0;0;1" /></path><path d="M 70.4904909629349 63.30901788399234 l 5.085032140068048 1.6039728122937658 a16.332005312084995,16.332005312084995 0 0,0 -0.0868767404668434,0.267379113898253 l -5.056668982402218 -1.6912656357041973" fill="#41ffcb" stroke="none"><animate attributeName="opacity" dur="3s" keyTimes="0;0.5;1" repeatCount="indefinite" values="0;0;1" /></path><path d="M 70.43197738013389 63.48910417448016 l 9.863967987590076 3.2991263907435284 a21.40106241699867,21.40106241699867 0 0,0 -0.1198552937045365,0.3483555865247533 l -9.8057174967248 -3.4684295836483914" fill="#35ff63" stroke="none"><animate attributeName="opacity" dur="3s" keyTimes="0;0.5;1" repeatCount="indefinite" values="0;0;1" /></path><path d="M 70.30569480924974 63.84612200776351 l 15.10954458089206 5.638935852019808 a27.127490039840637,27.127490039840637 0 0,0 -0.1670352210676935,0.4360762537342295 l -15.010240927656337 -5.898186355047589" fill="#ff8200" stroke="none"><animate attributeName="opacity" dur="3s" keyTimes="0;0.5;1" repeatCount="indefinite" values="0;0;1" /></path><path d="M 69.93691382557154 64.71781131703732 l 22.473524893689664 10.669897307987457 a35.877822045152726,35.877822045152726 0 0,0 -0.26967606521829374,0.5556125697617226 l -22.2865304559589 -11.055161235635751" fill="#ffd013" stroke="none"><animate attributeName="opacity" dur="3s" keyTimes="0;0.5;1" repeatCount="indefinite" values="0;0;1" /></path><line stroke="#FFFFFF" stroke-width="0.3" x1="99.6005491788091" x2="104.00061019867678" y1="81.37279824301724" y2="83.7475536033525"><animate attributeName="opacity" dur="3s" keyTimes="0;0.5;1" repeatCount="indefinite" values="0;0;1" /></line><path d="M 100.48056138278264 81.8477493150843 a46.0,46.0 0 0,1 -16.06697916733371,                     17.139133137985933" fill="none" id="id17" stroke="none"><animate attributeName="opacity" dur="3s" keyTimes="0;0.5;1" repeatCount="indefinite" values="0;0;1" /></path><text fill="#FFFFFF" style="font-size:3.75px; font-family:Arial;" text-anchor="middle"><textPath startOffset="11.877802361517583" xlink:href="#id17">May</textPath><animate attributeName="opacity" dur="3s" keyTimes="0;0.5;1" repeatCount="indefinite" values="0;0;1" /></text><path d="M 69.68013424370889 65.22446179273754 l 27.30492049619879 14.736728881506712 a42.02788844621514,42.02788844621514 0 0,0 -0.349078819331441,0.6336794538838084 l -27.0472064147737 -15.204554797408418" fill="#ff3505" stroke="none"><animate attributeName="opacity" dur="3s" keyTimes="0;0.5;1" repeatCount="indefinite" values="0;0;1" /></path><path d="M 69.39754386724809 65.71718193371066 l 9.347623315496447 5.686811777356297 a21.94156706507304,21.94156706507304 0 0,0 -0.19907830414253572,0.32097761418977744 l -9.248349247718313 -5.84687318416598" fill="#33ff57" stroke="none"><animate attributeName="opacity" dur="3s" keyTimes="0;0.5;1" repeatCount="indefinite" values="0;0;1" /></path><path d="M 69.195180273605 66.03727254113191 l 19.538231657062436 12.828201946628226 a34.37317397078353,34.37317397078353 0 0,0 -0.32899529644307257,0.49180332951439326 l -19.314520448261366 -13.162619850250422" fill="#fff316" stroke="none"><animate attributeName="opacity" dur="3s" keyTimes="0;0.5;1" repeatCount="indefinite" values="0;0;1" /></path><path d="M 68.64214840586585 66.80538543588754 l 12.039327593297857 9.480543588640145 a26.324037184594957,26.324037184594957 0 0,0 -0.28339968046851866,0.3535846760773998 l -11.874351863657749 -9.686376177544247" fill="#ff8900" stroke="none"><animate attributeName="opacity" dur="3s" keyTimes="0;0.5;1" repeatCount="indefinite" values="0;0;1" /></path><path d="M 68.27933510285209 67.24241743167853 l 14.315663086206406 12.522745678679222 a30.0199203187251,30.0199203187251 0 0,0 -0.34357248489845776,0.3860073289703227 l -14.097983584825485 -12.767310906085237" fill="#ff6c00" stroke="none"><animate attributeName="opacity" dur="3s" keyTimes="0;0.5;1" repeatCount="indefinite" values="0;0;1" /></path><path d="M 68.15344211933456 67.38385953324284 l 14.433649860654665 13.071294499087266 a30.47277556440903,30.47277556440903 0 0,0 -0.3554483729924849,0.38576900697708033 l -14.206510512045373 -13.317809401436474" fill="#ff6900" stroke="none"><animate attributeName="opacity" dur="3s" keyTimes="0;0.5;1" repeatCount="indefinite" values="0;0;1" /></path><path d="M 67.76141971117896 67.79489346090905 l 10.492862239017501 10.538116259236944 a25.871181938911022,25.871181938911022 0 0,0 -0.31827719457200737,0.31150122335833647 l -10.309911259867697 -10.717172298411864" fill="#ff8c00" stroke="none"><animate attributeName="opacity" dur="3s" keyTimes="0;0.5;1" repeatCount="indefinite" values="0;0;1" /></path><path d="M 66.91639096055418 68.5535686167099 l 8.303343198327994 10.268826068400722 a24.205843293492695,24.205843293492695 0 0,0 -0.32625155127052685,0.25919396379109394 l -8.125352008015046 -10.410233034765929" fill="#ff9900" stroke="none"><animate attributeName="opacity" dur="3s" keyTimes="0;0.5;1" repeatCount="indefinite" values="0;0;1" /></path><path d="M 66.4656377752172 68.89918693812442 l 14.94910407258055 20.575676572741852 a36.43293492695883,36.43293492695883 0 0,0 -0.5105341483458989,0.3642525593224365 l -14.592712752504283 -20.829952316839833" fill="#ffc312" stroke="none"><animate attributeName="opacity" dur="3s" keyTimes="0;0.5;1" repeatCount="indefinite" values="0;0;1" /></path><line stroke="#FFFFFF" stroke-width="0.3" x1="83.22280759571338" x2="85.80311955079264" y1="98.54479481554516" y2="102.82754979505017"><animate attributeName="opacity" dur="3s" keyTimes="0;0.5;1" repeatCount="indefinite" values="0;0;1" /></line><path d="M 83.73886998672923 99.40134581144616 a46.0,46.0 0 0,1 -21.759847268520826,                     6.556063483256414" fill="none" id="id18" stroke="none"><animate attributeName="opacity" dur="3s" keyTimes="0;0.5;1" repeatCount="indefinite" values="0;0;1" /></path><text fill="#FFFFFF" style="font-size:3.75px; font-family:Arial;" text-anchor="middle"><textPath startOffset="11.481875616133655" xlink:href="#id18">June</textPath><animate attributeName="opacity" dur="3s" keyTimes="0;0.5;1" repeatCount="indefinite" values="0;0;1" /></text><path d="M 61.603791166118626 70.88245624367403 l 1.6037911661186262 10.88245624367403 a22.0,22.0 0 0,0 -0.3751224282804633,0.05198855043632111 l -1.4162299519783945 -10.90845051889219" fill="#33ff56" stroke="none"><animate attributeName="opacity" dur="3s" keyTimes="0;0.5;1" repeatCount="indefinite" values="0;0;1" /></path><line stroke="#FFFFFF" stroke-width="0.3" x1="61.161829810220986" x2="61.290922011356656" y1="104.98499918297301" y2="109.98333242552556"><animate attributeName="opacity" dur="3s" keyTimes="0;0.5;1" repeatCount="indefinite" values="0;0;1" /></line><path d="M 61.18764825044812 105.98466583148351 a46.0,46.0 0 0,1 -22.860985603445844,                     -5.410456683514243" fill="none" id="id19" stroke="none"><animate attributeName="opacity" dur="3s" keyTimes="0;0.5;1" repeatCount="indefinite" values="0;0;1" /></path><text fill="#FFFFFF" style="font-size:3.75px; font-family:Arial;" text-anchor="middle"><textPath startOffset="11.877802361517572" xlink:href="#id19">July</textPath><animate attributeName="opacity" dur="3s" keyTimes="0;0.5;1" repeatCount="indefinite" values="0;0;1" /></text><path d="M 56.55582254970591 70.44689627070575 l -3.2109064676048478 9.739337559144005 a21.254980079681275,21.254980079681275 0 0,0 -0.34648680986148744,-0.1175471380949561 l 3.378077423290596 -9.682624094578603" fill="#35ff66" stroke="none"><animate attributeName="opacity" dur="3s" keyTimes="0;0.5;1" repeatCount="indefinite" values="0;0;1" /></path><path d="M 56.198264560621936 70.3221513091495 l -4.054174711581124 11.007553122506044 a22.730411686586983,22.730411686586983 0 0,0 -0.3659918612196924,-0.13838680523460858 l 4.243050974151441 -10.936136281501295" fill="#ffa400" stroke="none"><animate attributeName="opacity" dur="3s" keyTimes="0;0.5;1" repeatCount="indefinite" values="0;0;1" /></path><path d="M 55.84521238275639 70.18517254913235 l -0.0 -0.0 a11.0,11.0 0 0,0 -0.17470542597751976,-0.0730268822276331 l -0.0 -0.0" fill="#4dd2ff" stroke="none"><animate attributeName="opacity" dur="3s" keyTimes="0;0.5;1" repeatCount="indefinite" values="0;0;1" /></path><path d="M 55.324996260334906 69.95712508880537 l -5.699406949551867 12.138965247706949 a24.410358565737052,24.410358565737052 0 0,0 -0.3788107917212136,-0.1818522003200875 l 5.9075148530827315 -12.039060807315662" fill="#ff9700" stroke="none"><animate attributeName="opacity" dur="3s" keyTimes="0;0.5;1" repeatCount="indefinite" values="0;0;1" /></path><path d="M 54.8172454155875 69.70252827451439 l -1.8858894503705508 3.5305348568618102 a15.00265604249668,15.00265604249668 0 0,0 -0.2267381328223593,-0.12363570840889934 l 1.9463823894098171 -3.497549283245415" fill="#44ffe4" stroke="none"><animate attributeName="opacity" dur="3s" keyTimes="0;0.5;1" repeatCount="indefinite" values="0;0;1" /></path><line stroke="#FFFFFF" stroke-width="0.3" x1="38.11772818010894" x2="35.68636464456549" y1="99.32131966249864" y2="103.69035518055404"><animate attributeName="opacity" dur="3s" keyTimes="0;0.5;1" repeatCount="indefinite" values="0;0;1" /></line><path d="M 37.63145547300025 100.19512676610972 a46.0,46.0 0 0,1 -16.93027528149229,                     -16.28691140695599" fill="none" id="id20" stroke="none"><animate attributeName="opacity" dur="3s" keyTimes="0;0.5;1" repeatCount="indefinite" values="0;0;1" /></path><text fill="#FFFFFF" style="font-size:3.75px; font-family:Arial;" text-anchor="middle"><textPath startOffset="11.877802361517572" xlink:href="#id20">August</textPath><animate attributeName="opacity" dur="3s" keyTimes="0;0.5;1" repeatCount="indefinite" values="0;0;1" /></text><path d="M 53.688505053052424 69.00916375334887 l -6.806021111449441 9.715061046107955 a22.861885790172643,22.861885790172643 0 0,0 -0.3203632486613174,-0.22857067174804055 l 6.972241531841128 -9.596467189584372" fill="#ffa300" stroke="none"><animate attributeName="opacity" dur="3s" keyTimes="0;0.5;1" repeatCount="indefinite" values="0;0;1" /></path><path d="M 53.2318694004034 68.67135561413578 l -10.012878470053943 12.828539381337661 a27.273572377158036,27.273572377158036 0 0,0 -0.36759906229454353,-0.2920429272166339 l 10.232217171390912 -12.654283451546911" fill="#ff8100" stroke="none"><animate attributeName="opacity" dur="3s" keyTimes="0;0.5;1" repeatCount="indefinite" values="0;0;1" /></path><path d="M 52.9373981543978 68.43324701230175 l -5.3649512027682045 6.406131860606377 a19.355909694555113,19.355909694555113 0 0,0 -0.253594237582331,-0.2161185108771569 l 5.474427356652804 -6.312833907231483" fill="#3aff8e" stroke="none"><animate attributeName="opacity" dur="3s" keyTimes="0;0.5;1" repeatCount="indefinite" values="0;0;1" /></path><path d="M 52.651297493651136 68.18514333858496 l -10.58876788763415 11.793998037668917 a26.849933598937582,26.849933598937582 0 0,0 -0.34125044639721325,-0.31172419181386246 l 10.79021333613305 -11.609982396690658" fill="#ff8500" stroke="none"><animate attributeName="opacity" dur="3s" keyTimes="0;0.5;1" repeatCount="indefinite" values="0;0;1" /></path><path d="M 52.37390650424325 67.92733864509248 l -10.380804559297035 10.790866017556159 a25.9734395750332,25.9734395750332 0 0,0 -0.3195352071987742,-0.3127324534901905 l 10.565013551073607 -10.610578748249385" fill="#ff8b00" stroke="none"><animate attributeName="opacity" dur="3s" keyTimes="0;0.5;1" repeatCount="indefinite" values="0;0;1" /></path><path d="M 51.97486690504864 67.52311363787072 l -7.918557622242845 7.423205090223034 a21.853917662682605,21.853917662682605 0 0,0 -0.25491407765903273,-0.2766588851570911 l 8.045162675518688 -7.28580030969381" fill="#34ff59" stroke="none"><animate attributeName="opacity" dur="3s" keyTimes="0;0.5;1" repeatCount="indefinite" values="0;0;1" /></path><path d="M 51.72066489714791 67.24241743167855 l -11.259016129243744 9.848918260343728 a25.95883134130146,25.95883134130146 0 0,0 -0.29130443087459607,-0.33885286426924477 l 11.426880922274462 -9.653653582227967" fill="#ff8b00" stroke="none"><animate attributeName="opacity" dur="3s" keyTimes="0;0.5;1" repeatCount="indefinite" values="0;0;1" /></path><path d="M 51.476275544962554 66.95313752306083 l -11.364965940049927 9.27085003074778 a25.666666666666664,25.666666666666664 0 0,0 -0.27632255193294775,-0.34475487007101596 l 11.522864541154469 -9.073847247850058" fill="#ff8e00" stroke="none"><animate attributeName="opacity" dur="3s" keyTimes="0;0.5;1" repeatCount="indefinite" values="0;0;1" /></path><path d="M 51.24198849839123 66.65561676613734 l -11.793656922485118 8.962543693045507 a25.812749003984067,25.812749003984067 0 0,0 -0.2657960070352009,-0.3560771871863392 l 11.946185021598696 -8.75820737849715" fill="#ff8d00" stroke="none"><animate attributeName="opacity" dur="3s" keyTimes="0;0.5;1" repeatCount="indefinite" values="0;0;1" /></path><path d="M 50.910103814037 66.19465796702411 l -12.325078361046781 8.399396791941054 a25.91500664010624,25.91500664010624 0 0,0 -0.2480398027581741,-0.3707858506410935 l 12.467834076162957 -8.18599636719215" fill="#ff8c00" stroke="none"><animate attributeName="opacity" dur="3s" keyTimes="0;0.5;1" repeatCount="indefinite" values="0;0;1" /></path><line stroke="#FFFFFF" stroke-width="0.3" x1="21.158604237754" x2="16.842893597504442" y1="82.72324746246844" y2="85.24805273607605"><animate attributeName="opacity" dur="3s" keyTimes="0;0.5;1" repeatCount="indefinite" values="0;0;1" /></line><path d="M 20.29546210970409 83.22820851718997 a46.0,46.0 0 0,1 -6.274591021322525,                     -21.84267449423218" fill="none" id="id21" stroke="none"><animate attributeName="opacity" dur="3s" keyTimes="0;0.5;1" repeatCount="indefinite" values="0;0;1" /></path><text fill="#FFFFFF" style="font-size:3.75px; font-family:Arial;" text-anchor="middle"><textPath startOffset="11.481875616133665" xlink:href="#id21">September</textPath><animate attributeName="opacity" dur="3s" keyTimes="0;0.5;1" repeatCount="indefinite" values="0;0;1" /></text><path d="M 50.145767801916 64.88815995915074 l -16.52841336810105 8.198865907579542 a29.450199203187253,29.450199203187253 0 0,0 -0.22136276363194793,-0.4560728585666126 l 16.66709450424547 -7.913141691126351" fill="#ff7000" stroke="none"><animate attributeName="opacity" dur="3s" keyTimes="0;0.5;1" repeatCount="indefinite" values="0;0;1" /></path><path d="M 49.98334906896362 64.54606468561195 l -12.703720636307759 5.765593326373721 a24.950863213811424,24.950863213811424 0 0,0 -0.17413197369687686,-0.39262163118796123 l 12.801083654387687 -5.546065423689586" fill="#ff9300" stroke="none"><animate attributeName="opacity" dur="3s" keyTimes="0;0.5;1" repeatCount="indefinite" values="0;0;1" /></path><path d="M 49.83280205587597 64.19858142293326 l -16.324226181203112 6.741148659131876 a28.661354581673304,28.661354581673304 0 0,0 -0.18438447980124306,-0.4576271576055507 l 16.437845363710604 -6.459155165989618" fill="#ff7700" stroke="none"><animate attributeName="opacity" dur="3s" keyTimes="0;0.5;1" repeatCount="indefinite" values="0;0;1" /></path><path d="M 49.629627422705376 63.66815656810006 l -19.99705309725338 7.07325808350768 a32.211155378486055,32.211155378486055 0 0,0 -0.18039653421058582,-0.5243167701618354 l 20.115844828624706 -6.727993706965737" fill="#daff1c" stroke="none"><animate attributeName="opacity" dur="3s" keyTimes="0;0.5;1" repeatCount="indefinite" values="0;0;1" /></path><path d="M 49.45410401313974 63.12795106009104 l -19.635253882573817 5.823887631138961 a31.480743691899068,31.480743691899068 0 0,0 -0.149619524607279,-0.5208451933955323 l 19.73259335983572 -5.485036141050545" fill="#caff1d" stroke="none"><animate attributeName="opacity" dur="3s" keyTimes="0;0.5;1" repeatCount="indefinite" values="0;0;1" /></path><path d="M 49.30669983708032 62.579405285274504 l -16.08965349878883 3.8810971955059963 a27.551128818061088,27.551128818061088 0 0,0 -0.1072387465506041,-0.4619817134412495 l 16.15407635130306 -3.6035652329773984" fill="#ff7f00" stroke="none"><animate attributeName="opacity" dur="3s" keyTimes="0;0.5;1" repeatCount="indefinite" values="0;0;1" /></path><path d="M 49.187807928220195 62.023981868234486 l -16.010085205889084 2.996998383906314 a27.288180610889775,27.288180610889775 0 0,0 -0.0824539115167489,-0.4624453240962452 l 16.059301539583505 -2.7209670475212424" fill="#ff8100" stroke="none"><animate attributeName="opacity" dur="3s" keyTimes="0;0.5;1" repeatCount="indefinite" values="0;0;1" /></path><path d="M 49.097745296072 61.46316177187616 l -22.195426907200034 2.9787875116681986 a33.39442231075697,33.39442231075697 0 0,0 -0.0715570763598784,-0.5703803042236656 l 22.243413345546355 -2.596288383770176" fill="#f5ff19" stroke="none"><animate attributeName="opacity" dur="3s" keyTimes="0;0.5;1" repeatCount="indefinite" values="0;0;1" /></path><path d="M 49.05384157789233 61.08702152606159 l -16.063087724341273 1.595164390834078 a27.14209827357238,27.14209827357238 0 0,0 -0.04216771019345692,-0.4653171682061851 l 16.08816593734653 -1.3184284000548343" fill="#ff8200" stroke="none"><animate attributeName="opacity" dur="3s" keyTimes="0;0.5;1" repeatCount="indefinite" values="0;0;1" /></path><path d="M 49.02291123048069 60.70959294394248 l -21.92502192477695 1.4173011788705017 a32.970783532536515,32.970783532536515 0 0,0 -0.03173618329951635,-0.5666708719749629 l 21.94617000616041 -1.0396879792912619" fill="#ebff1a" stroke="none"><animate attributeName="opacity" dur="3s" keyTimes="0;0.5;1" repeatCount="indefinite" values="0;0;1" /></path><line stroke="#FFFFFF" stroke-width="0.3" x1="15.003750360536792" x2="10.004167067263104" y1="60.580963323375435" y2="60.64551480375049"><animate attributeName="opacity" dur="3s" keyTimes="0;0.5;1" repeatCount="indefinite" values="0;0;1" /></line><path d="M 14.003833701882058 60.59387361945045 a46.0,46.0 0 0,1 5.705147861482751,                     -22.789229740466457" fill="none" id="id22" stroke="none"><animate attributeName="opacity" dur="3s" keyTimes="0;0.5;1" repeatCount="indefinite" values="0;0;1" /></path><text fill="#FFFFFF" style="font-size:3.75px; font-family:Arial;" text-anchor="middle"><textPath startOffset="11.877802361517572" xlink:href="#id22">October</textPath><animate attributeName="opacity" dur="3s" keyTimes="0;0.5;1" repeatCount="indefinite" values="0;0;1" /></text><path d="M 49.00010186290191 59.952661078741315 l -16.404894565685467 -0.07059974578154041 a27.405046480743692,27.405046480743692 0 0,0 0.006090436041157395,-0.47171098328363376 l 16.401248744963603 0.35297257852542135" fill="#ff8000" stroke="none"><animate attributeName="opacity" dur="3s" keyTimes="0;0.5;1" repeatCount="indefinite" values="0;0;1" /></path><path d="M 49.02942529581029 59.195953571121144 l -16.4631466344414 -1.2066035386893845 a27.50730411686587,27.50730411686587 0 0,0 0.03867463584688276,-0.47192851659237883 l 16.439937745165256 1.4898107738191713" fill="#ff7f00" stroke="none"><animate attributeName="opacity" dur="3s" keyTimes="0;0.5;1" repeatCount="indefinite" values="0;0;1" /></path><path d="M 49.08555569640274 58.630728097245324 l -20.379427212294477 -2.5567015873480394 a31.539176626826027,31.539176626826027 0 0,0 0.07221570469711652,-0.5380908805607034 l 20.332398365233733 2.9071211232759455" fill="#cbff1d" stroke="none"><animate attributeName="opacity" dur="3s" keyTimes="0;0.5;1" repeatCount="indefinite" values="0;0;1" /></path><path d="M 49.13915613366615 58.25584676386553 l -26.25064520149749 -4.215616055464462 a37.58698539176627,37.58698539176627 0 0,0 0.1080860989940636,-0.6379302746662316 l 26.174190984564262 4.666853171629461" fill="#ffa70f" stroke="none"><animate attributeName="opacity" dur="3s" keyTimes="0;0.5;1" repeatCount="indefinite" values="0;0;1" /></path><path d="M 49.20562882701229 57.88303259832088 l -10.306975927461037 -2.02138056016904 a21.503320053120852,21.503320053120852 0 0,0 0.07436124963918346,-0.3626118621009415 l 10.270654094247334 2.1984987183555735" fill="#34ff61" stroke="none"><animate attributeName="opacity" dur="3s" keyTimes="0;0.5;1" repeatCount="indefinite" values="0;0;1" /></path><path d="M 49.28489499310337 57.51272745940883 l -17.91542789333712 -4.158666837455884 a29.39176626826029,29.39176626826029 0 0,0 0.11864084390233652,-0.49184289210865934 l 17.841188915964835 4.466435327100418" fill="#ff7100" stroke="none"><animate attributeName="opacity" dur="3s" keyTimes="0;0.5;1" repeatCount="indefinite" values="0;0;1" /></path><path d="M 49.427572377404694 56.96293329592784 l -13.394549736993259 -3.847757816314526 a24.93625498007968,24.93625498007968 0 0,0 0.12206190286052479,-0.41153205622337524 l 13.326332364217079 4.077752884643231" fill="#ff9300" stroke="none"><animate attributeName="opacity" dur="3s" keyTimes="0;0.5;1" repeatCount="indefinite" values="0;0;1" /></path><path d="M 49.53837832075331 56.600813061875584 l -19.95071544674402 -6.482380402585214 a31.97742363877822,31.97742363877822 0 0,0 0.17460085393470515,-0.5220343296486059 l 19.836176010357434 6.824838738526465" fill="#d5ff1c" stroke="none"><animate attributeName="opacity" dur="3s" keyTimes="0;0.5;1" repeatCount="indefinite" values="0;0;1" /></path><path d="M 49.66158336263915 56.24272153915359 l -18.232957894309706 -6.626382199208536 a30.39973439575033,30.39973439575033 0 0,0 0.18297080659009946,-0.49027079429971193 l 18.11619420802828 6.939250827190284" fill="#ff6900" stroke="none"><animate attributeName="opacity" dur="3s" keyTimes="0;0.5;1" repeatCount="indefinite" values="0;0;1" /></path><path d="M 49.797041480628835 55.88908313730484 l -13.075504609818289 -5.268306470784636 a25.09694555112882,25.09694555112882 0 0,0 0.16489686721207852,-0.3993108434562274 l 12.982882097094391 5.49259923209736" fill="#ff9200" stroke="none"><animate attributeName="opacity" dur="3s" keyTimes="0;0.5;1" repeatCount="indefinite" values="0;0;1" /></path><path d="M 50.104060433825325 55.196836448483296 l -11.670111998357386 -5.664288491031648 a23.97211155378486,23.97211155378486 0 0,0 0.18337522330854017,-0.3696732604822137 l 11.570881530168489 5.864331059775223" fill="#ff9b00" stroke="none"><animate attributeName="opacity" dur="3s" keyTimes="0;0.5;1" repeatCount="indefinite" values="0;0;1" /></path><path d="M 50.275257390623 54.859048611261976 l -13.999496664760514 -7.4007852661248545 a26.83532536520584,26.83532536520584 0 0,0 0.21940038190680702,-0.40651558653011594 l 13.870030135644031 7.640667082019599" fill="#ff8500" stroke="none"><animate attributeName="opacity" dur="3s" keyTimes="0;0.5;1" repeatCount="indefinite" values="0;0;1" /></path><line stroke="#FFFFFF" stroke-width="0.3" x1="20.964464037168128" x2="16.62718226352014" y1="37.61190199917689" y2="35.124335554640986"><animate attributeName="opacity" dur="3s" keyTimes="0;0.5;1" repeatCount="indefinite" values="0;0;1" /></line><path d="M 20.09700768243853 37.11438871026971 a46.0,46.0 0 0,1 15.825874378746157,                     -16.309954680929934" fill="none" id="id23" stroke="none"><animate attributeName="opacity" dur="3s" keyTimes="0;0.5;1" repeatCount="indefinite" values="0;0;1" /></path><text fill="#FFFFFF" style="font-size:3.75px; font-family:Arial;" text-anchor="middle"><textPath startOffset="11.481875616133665" xlink:href="#id23">November</textPath><animate attributeName="opacity" dur="3s" keyTimes="0;0.5;1" repeatCount="indefinite" values="0;0;1" /></text><path d="M 50.45798009797443 54.52735382202102 l -4.435201813690504 -2.5437266431509222 a16.1128818061089,16.1128818061089 0 0,0 0.14005955667182365,-0.23940718332449445 l 4.390758618010415 2.6196944710417407" fill="#41ffcf" stroke="none"><animate attributeName="opacity" dur="3s" keyTimes="0;0.5;1" repeatCount="indefinite" values="0;0;1" /></path><path d="M 51.185028030078556 53.42000994153493 l -9.365176063661565 -6.9906932892059235 a22.686586985391767,22.686586985391767 0 0,0 0.2362905908525611,-0.3109307198902437 l 9.243455218405899 7.150863653605276" fill="#ffa500" stroke="none"><animate attributeName="opacity" dur="3s" keyTimes="0;0.5;1" repeatCount="indefinite" values="0;0;1" /></path><path d="M 51.416745638221464 53.1204836971623 l -14.932354865776736 -11.968348415295338 a30.136786188579016,30.136786188579016 0 0,0 0.3279190994315072,-0.40199004231226143 l 14.724127032400451 12.2236111178785" fill="#ff6b00" stroke="none"><animate attributeName="opacity" dur="3s" keyTimes="0;0.5;1" repeatCount="indefinite" values="0;0;1" /></path><path d="M 52.03991557874497 52.40809272932731 l -12.516254920007917 -11.937341578322002 a28.296148738379813,28.296148738379813 0 0,0 0.33919770652486286,-0.34957305289404383 l 12.308918789638563 12.151019686028015" fill="#ff7900" stroke="none"><animate attributeName="opacity" dur="3s" keyTimes="0;0.5;1" repeatCount="indefinite" values="0;0;1" /></path><path d="M 52.58112019283759 51.87841010596584 l -10.699739004752162 -11.71320932924449 a26.864541832669325,26.864541832669325 0 0,0 0.34410793220268737,-0.30894349912137226 l 10.496530079046822 11.89565230914977" fill="#ff8400" stroke="none"><animate attributeName="opacity" dur="3s" keyTimes="0;0.5;1" repeatCount="indefinite" values="0;0;1" /></path><path d="M 53.01024469020805 51.5062775705092 l -12.058024100159027 -14.65251717916143 a29.976095617529882,29.976095617529882 0 0,0 0.4012466001139629,-0.32444684579484984 l 11.804018576987469 14.857905313999398" fill="#ff6c00" stroke="none"><animate attributeName="opacity" dur="3s" keyTimes="0;0.5;1" repeatCount="indefinite" values="0;0;1" /></path><path d="M 53.30675442873361 51.27071230152638 l -12.542057770327858 -16.357270840034897 a31.612217795484728,31.612217795484728 0 0,0 0.43467378460350886,-0.3273872828307496 l 12.258636000422335 16.570738241178237" fill="#cdff1d" stroke="none"><animate attributeName="opacity" dur="3s" keyTimes="0;0.5;1" repeatCount="indefinite" values="0;0;1" /></path><line stroke="#FFFFFF" stroke-width="0.3" x1="37.109807526655274" x2="34.566452807394754" y1="21.256754284995267" y2="16.951949205550292"><animate attributeName="opacity" dur="3s" keyTimes="0;0.5;1" repeatCount="indefinite" values="0;0;1" /></line><path d="M 36.60113658280317 20.39579326910627 a46.0,46.0 0 0,1 22.607049034028407,                     -6.388977872725619" fill="none" id="id24" stroke="none"><animate attributeName="opacity" dur="3s" keyTimes="0;0.5;1" repeatCount="indefinite" values="0;0;1" /></path><text fill="#FFFFFF" style="font-size:3.75px; font-family:Arial;" text-anchor="middle"><textPath startOffset="11.877802361517572" xlink:href="#id24">December</textPath><animate attributeName="opacity" dur="3s" keyTimes="0;0.5;1" repeatCount="indefinite" values="0;0;1" /></text><path d="M 56.46603372138398 49.58313471616317 l -3.8859549517849428 -11.4544016666891 a23.095617529880478,23.095617529880478 0 0,0 0.3775772489965383,-0.12448128257811064 l 3.6882105101852374 11.519594900069666" fill="#ffa200" stroke="none"><animate attributeName="opacity" dur="3s" keyTimes="0;0.5;1" repeatCount="indefinite" values="0;0;1" /></path><path d="M 56.82669323831329 49.46766292809457 l -5.0444199120039706 -16.742639409124568 a28.48605577689243,28.48605577689243 0 0,0 0.4707114291932343,-0.13741357393877887 l 4.7554755116222776 16.82699020297314" fill="#ff7800" stroke="none"><animate attributeName="opacity" dur="3s" keyTimes="0;0.5;1" repeatCount="indefinite" values="0;0;1" /></path><path d="M 57.19111375372193 49.36467405034195 l -3.748911922323319 -14.194558538388234 a25.681274900398407,25.681274900398407 0 0,0 0.4283772535641233,-0.10920290015092163 l 3.504020488971815 14.256986817484751" fill="#ff8e00" stroke="none"><animate attributeName="opacity" dur="3s" keyTimes="0;0.5;1" repeatCount="indefinite" values="0;0;1" /></path></svg>